Coordinates
version=1
nRows=8
nColumns=40
inDegrees=yes

Units are S.I. units (second, meters, Newtons, ...)
Angles are in degrees.

endheader
time	pelvis_tilt	pelvis_list	pelvis_rotation	pelvis_tx	pelvis_ty	pelvis_tz	hip_flexion_r	hip_adduction_r	hip_rotation_r	knee_angle_r	knee_angle_r_beta	ankle_angle_r	subtalar_angle_r	mtp_angle_r	hip_flexion_l	hip_adduction_l	hip_rotation_l	knee_angle_l	knee_angle_l_beta	ankle_angle_l	subtalar_angle_l	mtp_angle_l	lumbar_extension	lumbar_bending	lumbar_rotation	arm_flex_r	arm_add_r	arm_rot_r	elbow_flex_r	pro_sup_r	wrist_flex_r	wrist_dev_r	arm_flex_l	arm_add_l	arm_rot_l	elbow_flex_l	pro_sup_l	wrist_flex_l	wrist_dev_l
     52.81000000	     -7.13240796	     -5.09148920	      2.87325625	      1.21818953	      0.92866513	      0.42345632	     11.15048780	     -3.28187040	     -7.67279267	     35.51294199	     35.51294199	      8.79067429	     -6.94318884	    -14.04785154	     22.38275666	     -4.78608246	     -1.53731299	     24.07348454	     24.07348454	     11.50451740	    -14.50490883	      4.69365544	     -8.75809097	      5.36088982	      4.65364195	     40.69166478	    -13.49494342	     -5.57227920	     62.96842012	     43.95154538	      0.00000000	      0.00000000	     17.67694337	    -15.13907138	     15.13581983	     41.28513554	     44.44156763	      0.00000000	      0.00000000
     52.83207143	     -6.89312528	     -5.01616934	      2.42284154	      1.21861074	      0.92752004	      0.41952345	     13.86582428	     -3.45588746	     -6.22903388	     41.10513432	     41.10513432	      7.13814303	    -11.02832845	    -13.88972868	     22.17564017	     -4.46736691	     -1.38199158	     25.00454911	     25.00454911	     12.11421002	    -15.55991837	      4.76229217	     -8.84772104	      5.62661818	      4.87248817	     36.63385057	    -13.64248088	     -5.73307432	     59.79425898	     44.07541790	      0.00000000	      0.00000000	     19.47341478	    -14.84698984	     14.82061152	     42.78708100	     44.53033132	      0.00000000	      0.00000000
     52.85414286	     -6.47336824	     -4.95589235	      1.98571053	      1.21923356	      0.92635805	      0.41558343	     16.25187902	     -3.37341801	     -4.72493266	     46.42548268	     46.42548268	      5.87372577	    -14.58077053	    -11.63714029	     21.88586968	     -4.17726804	     -1.27539011	     26.23322203	     26.23322203	     13.44822734	    -16.32045779	      6.17774659	     -9.04452441	      5.98854035	      4.41715587	     34.10848639	    -12.54771415	     -7.33131255	     52.80046226	     44.48091989	      0.00000000	      0.00000000	     20.65082753	    -15.18200814	     14.18904402	     45.47642571	     44.75590502	      0.00000000	      0.00000000
     52.87621429	     -6.06502104	     -4.80250727	      1.53870501	      1.21983952	      0.92496819	      0.41171463	     18.58969131	     -3.32240208	     -3.40098147	     51.57333247	     51.57333247	      5.69169755	    -16.58912794	     -6.71776298	     21.55801906	     -3.79589733	     -1.25416740	     27.37364961	     27.37364961	     14.63385144	    -16.99416270	      7.21540353	     -9.32316740	      6.22898782	      4.38202608	     31.05208661	    -12.21067285	     -8.34954012	     46.93047917	     44.80419971	      0.00000000	      0.00000000	     22.24643327	    -15.12711336	     13.29971287	     47.77976382	     44.99730889	      0.00000000	      0.00000000
     52.89828571	     -5.68109618	     -4.65927848	      1.11988167	      1.22044332	      0.92337753	      0.40803338	     20.76710440	     -3.21501207	     -2.32335949	     56.20817149	     56.20817149	      6.23028258	    -17.55081430	     -0.56696075	     21.32028001	     -3.43761912	     -1.27466637	     28.62218615	     28.62218615	     15.90385590	    -17.51335776	      8.29565326	     -9.59736630	      6.49873806	      4.39393667	     28.01578749	    -11.94209248	     -9.63567376	     41.13600816	     45.13989852	      0.00000000	      0.00000000	     23.87263170	    -15.04114719	     12.31216967	     50.01047149	     45.25058268	      0.00000000	      0.00000000
     52.92035714	     -5.27606194	     -4.47809110	      0.69209077	      1.22105942	      0.92181629	      0.40469807	     22.66685030	     -3.08008753	     -1.35531600	     60.08869611	     60.08869611	      6.93821837	    -18.18630492	      4.98850613	     20.99852727	     -3.06756788	     -1.38022269	     29.74257241	     29.74257241	     17.13074438	    -17.90766540	      9.36585015	     -9.94170691	      6.74490223	      4.47317551	     24.97690722	    -11.81459693	    -11.00095710	     35.77495829	     45.46293201	      0.00000000	      0.00000000	     25.60371919	    -14.94347952	     11.35334755	     52.14812517	     45.48245175	      0.00000000	      0.00000000
     52.94242857	     -4.89023943	     -4.31564993	      0.27887952	      1.22168394	      0.92035523	      0.40171793	     24.28752185	     -2.94570249	     -0.60178585	     63.07405351	     63.07405351	      7.58074891	    -18.57990807	      9.06000913	     20.64610582	     -2.74747287	     -1.54129038	     30.74902142	     30.74902142	     18.30408925	    -18.16623724	     10.34658929	    -10.28919137	      7.02150191	      4.52283622	     21.77876915	    -11.72419078	    -12.46991463	     31.20296024	     45.77443625	      0.00000000	      0.00000000	     27.25061039	    -14.88695255	     10.28572329	     54.31733011	     45.71768276	      0.00000000	      0.00000000
     52.96450000	     -4.53918581	     -4.13748331	     -0.14956101	      1.22232308	      0.91908604	      0.39917122	     25.60492087	     -2.92818326	     -0.08449931	     65.01794363	     65.01794363	      7.60636891	    -18.88086480	      9.77085829	     20.19489087	     -2.45405961	     -1.80304950	     31.45944937	     31.45944937	     19.03349832	    -18.40901998	     10.40936820	    -10.62623213	      7.27780164	      4.83010288	     17.79065230	    -11.99801512	    -12.77213717	     28.60925627	     45.88710596	      0.00000000	      0.00000000	     29.10235724	    -14.75233197	      9.62975701	     56.13753478	     45.82978562	      0.00000000	      0.00000000
